<?xml version="1.0" standalone="no"?>
<!DOCTYPE svg PUBLIC "-//W3C//DTD SVG 20010904//EN"
 "http://www.w3.org/TR/2001/REC-SVG-20010904/DTD/svg10.dtd">
<svg version="1.0" xmlns="http://www.w3.org/2000/svg"
 width="500.000000pt" height="500.000000pt" viewBox="0 0 500.000000 500.000000"
 preserveAspectRatio="xMidYMid meet">
<metadata>
Created by potrace 1.11, written by Peter Selinger 2001-2013
</metadata>
<g transform="translate(0.000000,500.000000) scale(0.100000,-0.100000)"
fill="#000000" stroke="none">
<path d="M3230 3570 c-182 -119 -339 -220 -495 -320 -71 -46 -134 -87 -140
-92 -12 -11 473 216 704 330 l74 36 166 -17 c91 -9 231 -23 311 -32 80 -8 264
-26 410 -40 146 -14 291 -28 323 -31 l57 -6 0 36 c0 20 -6 39 -12 41 -22 8
-1263 189 -1263 184 0 0 -61 -40 -135 -89z"/>
<path d="M3035 3279 c-499 -257 -524 -269 -534 -269 -6 0 -61 51 -123 113
-193 191 -231 206 -608 237 -337 28 -405 29 -450 10 -221 -91 -438 -400 -556
-789 -64 -210 -86 -345 -91 -553 l-5 -186 -42 -7 c-22 -4 -59 -13 -81 -20
l-40 -13 60 4 c33 3 128 9 210 13 l150 9 95 45 c52 25 125 54 163 63 l67 18 1
51 c0 27 4 72 7 99 l7 48 95 35 c131 47 391 140 471 168 l66 23 17 -99 c9 -55
21 -155 28 -224 6 -68 14 -122 17 -120 7 4 284 -50 322 -64 34 -12 39 -7 39
37 0 57 38 224 76 333 40 119 142 332 153 324 13 -8 69 -211 90 -330 23 -124
41 -289 41 -374 0 -39 4 -58 13 -59 6 0 78 -4 159 -8 l147 -7 5 34 c3 19 7 72
11 119 19 290 168 627 395 895 112 131 110 130 311 201 101 36 200 71 219 78
19 8 157 57 305 111 149 54 288 104 310 112 22 8 44 18 48 22 4 4 -56 11 -135
15 -79 4 -192 11 -253 15 l-110 8 -130 -55 c-71 -30 -209 -87 -305 -127 -96
-40 -272 -113 -390 -163 -373 -156 -534 -222 -539 -222 -11 0 125 133 184 180
58 46 208 121 449 225 56 23 144 63 196 87 52 24 121 55 152 68 32 13 56 25
54 27 -3 3 -359 33 -391 33 -11 -1 -168 -77 -350 -171z m-1580 4 c19 -9 35
-20 35 -23 0 -7 -87 -2 -165 9 -47 7 -48 9 -25 19 38 16 115 14 155 -5z m644
-27 c30 -19 57 -38 58 -43 2 -4 -61 -3 -139 4 -79 6 -172 12 -207 12 -35 1
-61 4 -57 8 14 15 222 62 255 58 19 -3 60 -20 90 -39z m-535 -65 c18 -20 18
-21 -38 -82 -31 -34 -64 -72 -73 -85 -18 -28 -21 -28 -230 -12 -84 6 -153 15
-153 20 0 9 75 126 103 161 13 15 39 19 178 25 90 4 171 5 179 1 8 -4 24 -16
34 -28z m657 -33 c56 -67 101 -129 97 -134 -7 -6 -517 34 -529 42 -12 7 -42
65 -36 70 3 3 321 35 430 43 11 0 27 -9 38 -21z m-563 -104 c52 -91 162 -356
162 -391 0 -4 -22 -20 -49 -34 -151 -82 -257 -137 -436 -229 -110 -57 -219
-114 -243 -127 -160 -87 -254 -135 -258 -130 -6 6 31 266 40 274 6 6 158 19
281 24 l60 3 -3 -30 c-1 -16 13 12 32 61 61 163 133 313 198 412 65 98 164
223 177 223 4 0 21 -25 39 -56z m704 -89 c6 -14 9 -27 7 -29 -2 -2 -55 -29
-117 -60 -97 -49 -118 -56 -155 -52 -23 3 -76 8 -118 11 l-76 6 -21 51 c-12
29 -21 53 -19 54 2 3 412 41 460 43 20 1 30 -5 39 -24z m-952 5 c0 -5 -13 -31
-28 -57 -15 -26 -41 -79 -57 -117 l-29 -68 -66 6 c-36 3 -111 9 -167 12 -57 4
-103 11 -103 15 0 12 62 183 69 191 4 4 87 11 186 16 99 5 183 10 188 11 4 0
7 -3 7 -9z m1218 -96 c-23 -21 -72 -67 -108 -102 -59 -58 -78 -69 -195 -117
-71 -30 -165 -70 -208 -89 -43 -20 -82 -36 -87 -36 -8 0 -34 63 -35 83 0 4 70
38 155 76 196 86 446 197 485 215 17 7 32 12 33 11 2 -2 -16 -21 -40 -41z
m560 -96 c-103 -106 -233 -271 -308 -391 l-43 -68 -27 83 c-14 46 -45 123 -68
172 -23 49 -41 90 -40 92 2 1 116 43 253 93 138 51 266 98 285 105 19 8 38 14
41 15 4 1 -38 -45 -93 -101z m-1902 -83 c-8 -22 -43 -141 -56 -194 l-11 -43
-67 6 c-37 3 -111 9 -164 12 -62 4 -98 11 -98 18 0 11 35 153 46 188 5 18 35
21 263 26 80 2 92 0 87 -13z m581 -186 l11 -41 -67 -30 c-36 -16 -165 -72
-286 -123 -183 -78 -514 -220 -654 -281 -18 -9 -31 -18 -27 -21 3 -3 68 16
145 43 77 26 142 46 144 44 4 -5 -10 -140 -15 -146 -8 -7 -279 -65 -289 -62
-12 4 -14 174 -3 201 2 7 44 28 92 49 89 37 312 136 527 233 209 95 390 174
400 174 6 1 16 -17 22 -40z m405 -27 c-40 -50 -131 -196 -150 -241 l-15 -36
-28 115 c-15 63 -26 116 -25 118 4 4 229 80 239 81 5 1 -5 -16 -21 -37z"/>
<path d="M4714 2159 c-36 -41 -219 -183 -339 -262 -272 -180 -545 -283 -840
-317 -83 -10 -113 -19 -175 -50 -96 -49 -163 -74 -275 -102 -81 -20 -115 -22
-340 -22 -280 0 -341 7 -830 99 -462 86 -808 98 -1068 34 -86 -20 -167 -55
-270 -112 -106 -61 -90 -59 53 6 73 33 186 63 289 78 107 15 384 6 511 -16
126 -23 439 -101 680 -171 530 -154 764 -197 1065 -198 334 0 586 72 850 244
221 145 452 395 663 718 52 81 65 115 26 71z"/>
</g>
</svg>
